<?xml version="1.0" standalone="no"?><svg xmlns="http://www.w3.org/2000/svg" viewBox="0 0 1440 320"><path fill="#e7008a" fill-opacity="1" d="M0,224L0,192L72,192L72,64L144,64L144,288L216,288L216,128L288,128L288,320L360,320L360,64L432,64L432,32L504,32L504,160L576,160L576,64L648,64L648,96L720,96L720,256L792,256L792,96L864,96L864,128L936,128L936,96L1008,96L1008,224L1080,224L1080,96L1152,96L1152,128L1224,128L1224,224L1296,224L1296,160L1368,160L1368,224L1440,224L1440,320L1368,320L1368,320L1296,320L1296,320L1224,320L1224,320L1152,320L1152,320L1080,320L1080,320L1008,320L1008,320L936,320L936,320L864,320L864,320L792,320L792,320L720,320L720,320L648,320L648,320L576,320L576,320L504,320L504,320L432,320L432,320L360,320L360,320L288,320L288,320L216,320L216,320L144,320L144,320L72,320L72,320L0,320L0,320Z"></path></svg>